<svg xmlns="http://www.w3.org/2000/svg" xmlns:xlink="http://www.w3.org/1999/xlink" width="343.949" height="481.529" viewBox="0 0 343.949 481.529">
  <defs>
    <linearGradient id="linear-gradient" x1="-0.144" y1="0.04" x2="1.115" y2="0.939" gradientUnits="objectBoundingBox">
      <stop offset="0" stop-color="red"/>
      <stop offset="0.153" stop-color="#f60000"/>
      <stop offset="0.396" stop-color="#df0001"/>
      <stop offset="0.695" stop-color="#ba0002"/>
      <stop offset="0.975" stop-color="#920004"/>
    </linearGradient>
    <linearGradient id="linear-gradient-2" x1="0.5" y1="0.02" x2="0.5" y2="1.123" gradientUnits="objectBoundingBox">
      <stop offset="0" stop-color="#ffe241"/>
      <stop offset="0.157" stop-color="#ffd93c"/>
      <stop offset="0.405" stop-color="#ffc22f"/>
      <stop offset="0.711" stop-color="#ff9d19"/>
      <stop offset="0.977" stop-color="#ff7804"/>
    </linearGradient>
    <linearGradient id="linear-gradient-3" x1="0" y1="0.5" x2="1" y2="0.5" xlink:href="#linear-gradient"/>
  </defs>
  <g id="Group_16213" data-name="Group 16213" transform="translate(-34.025 -153.235)">
    <g id="Group_276" data-name="Group 276" transform="translate(34.025 153.235)">
      <g id="Group_275" data-name="Group 275">
        <rect id="Rectangle_5" data-name="Rectangle 5" width="316.639" height="449.898" rx="12.61" transform="translate(13.655 15.816)" fill="#fef9ef"/>
        <path id="Path_255" data-name="Path 255" d="M315.553,0H28.4A28.4,28.4,0,0,0,0,28.4V453.133a28.4,28.4,0,0,0,28.4,28.4H315.553a28.4,28.4,0,0,0,28.4-28.4V28.4A28.4,28.4,0,0,0,315.553,0Zm14.742,420.934a44.78,44.78,0,0,0-44.779,44.781H58.434a44.78,44.78,0,0,0-44.779-44.781V60.6A44.78,44.78,0,0,0,58.434,15.816H285.515A44.78,44.78,0,0,0,330.295,60.6Z" fill="url(#linear-gradient)"/>
      </g>
      <path id="Path_469" data-name="Path 469" d="M283.289,13a44.78,44.78,0,0,0,44.779,44.779V418.118A44.779,44.779,0,0,0,283.289,462.9H56.208a44.779,44.779,0,0,0-44.779-44.779V57.779A44.78,44.78,0,0,0,56.208,13H283.289m0-5.5H56.208A5.5,5.5,0,0,0,50.7,13,39.321,39.321,0,0,1,11.428,52.275a5.5,5.5,0,0,0-5.5,5.5V418.118a5.5,5.5,0,0,0,5.5,5.5A39.32,39.32,0,0,1,50.7,462.9a5.5,5.5,0,0,0,5.5,5.5H283.289a5.5,5.5,0,0,0,5.5-5.5,39.32,39.32,0,0,1,39.276-39.276,5.5,5.5,0,0,0,5.5-5.5V57.779a5.5,5.5,0,0,0-5.5-5.5A39.321,39.321,0,0,1,288.792,13a5.5,5.5,0,0,0-5.5-5.5Z" transform="translate(2.227 2.817)" fill="#85ceff"/>
      <path id="Path_470" data-name="Path 470" d="M283.289,13a44.78,44.78,0,0,0,44.779,44.779V418.118A44.779,44.779,0,0,0,283.289,462.9H56.208a44.779,44.779,0,0,0-44.779-44.779V57.779A44.78,44.78,0,0,0,56.208,13H283.289m0-5.5H56.208A5.5,5.5,0,0,0,50.7,13,39.321,39.321,0,0,1,11.428,52.275a5.5,5.5,0,0,0-5.5,5.5V418.118a5.5,5.5,0,0,0,5.5,5.5A39.32,39.32,0,0,1,50.7,462.9a5.5,5.5,0,0,0,5.5,5.5H283.289a5.5,5.5,0,0,0,5.5-5.5,39.32,39.32,0,0,1,39.276-39.276,5.5,5.5,0,0,0,5.5-5.5V57.779a5.5,5.5,0,0,0-5.5-5.5A39.321,39.321,0,0,1,288.792,13a5.5,5.5,0,0,0-5.5-5.5Z" transform="translate(2.227 2.817)" fill="url(#linear-gradient-2)"/>
      <path id="Path_471" data-name="Path 471" d="M284.15,8.478a5.5,5.5,0,0,1,5.5,5.5A39.321,39.321,0,0,0,328.93,53.257a5.5,5.5,0,0,1,5.5,5.5V419.1a5.5,5.5,0,0,1-5.5,5.5,39.32,39.32,0,0,0-39.276,39.276,5.5,5.5,0,0,1-5.5,5.5H57.069a5.5,5.5,0,0,1-5.5-5.5A39.32,39.32,0,0,0,12.29,424.6a5.5,5.5,0,0,1-5.5-5.5V58.761a5.5,5.5,0,0,1,5.5-5.5A39.321,39.321,0,0,0,51.566,13.981a5.5,5.5,0,0,1,5.5-5.5H284.15m.747-3.595H56.322A7.626,7.626,0,0,0,48.706,12.5,37.5,37.5,0,0,1,11.248,49.958a7.624,7.624,0,0,0-7.616,7.616v362.71a7.624,7.624,0,0,0,7.616,7.616,37.5,37.5,0,0,1,37.457,37.457,7.626,7.626,0,0,0,7.616,7.618H284.9a7.626,7.626,0,0,0,7.616-7.618A37.5,37.5,0,0,1,329.971,427.9a7.624,7.624,0,0,0,7.616-7.616V57.575a7.624,7.624,0,0,0-7.616-7.616A37.5,37.5,0,0,1,292.514,12.5,7.626,7.626,0,0,0,284.9,4.883Z" transform="translate(1.365 1.835)" opacity="0.5" fill="url(#linear-gradient-3)" style="mix-blend-mode: multiply;isolation: isolate"/>
      <path id="Path_472" data-name="Path 472" d="M281.973,11.684a44.78,44.78,0,0,0,44.779,44.779V416.8a44.779,44.779,0,0,0-44.779,44.779H54.892A44.779,44.779,0,0,0,10.113,416.8V56.463A44.78,44.78,0,0,0,54.892,11.684H281.973m0-.688H54.892a.687.687,0,0,0-.688.688A44.141,44.141,0,0,1,10.113,55.775a.688.688,0,0,0-.688.688V416.8a.688.688,0,0,0,.688.688A44.14,44.14,0,0,1,54.2,461.582a.688.688,0,0,0,.688.688H281.973a.688.688,0,0,0,.688-.688,44.14,44.14,0,0,1,44.092-44.092.688.688,0,0,0,.688-.688V56.463a.688.688,0,0,0-.688-.688,44.141,44.141,0,0,1-44.092-44.092.687.687,0,0,0-.688-.688Z" transform="translate(3.542 4.132)" fill="#ffd91d" style="mix-blend-mode: multiply;isolation: isolate"/>
    </g>
  </g>
</svg>
