<svg id="Group_16214" data-name="Group 16214" xmlns="http://www.w3.org/2000/svg" xmlns:xlink="http://www.w3.org/1999/xlink" width="345.558" height="483.781" viewBox="0 0 345.558 483.781">
  <defs>
    <linearGradient id="linear-gradient" x1="-0.239" y1="-0.028" x2="1.527" y2="1.233" gradientUnits="objectBoundingBox">
      <stop offset="0.002" stop-color="#b8d921"/>
      <stop offset="0.982" stop-color="#386819"/>
    </linearGradient>
    <linearGradient id="linear-gradient-2" x1="0.526" y1="1.018" x2="0.451" y2="-0.478" xlink:href="#linear-gradient"/>
  </defs>
  <g id="Group_281" data-name="Group 281">
    <rect id="Rectangle_6" data-name="Rectangle 6" width="318.12" height="452.002" rx="12.61" transform="translate(13.719 15.89)" fill="#fff"/>
    <path id="Path_529" data-name="Path 529" d="M317.029,0H28.529A28.53,28.53,0,0,0,0,28.529V455.252a28.53,28.53,0,0,0,28.529,28.529h288.5a28.53,28.53,0,0,0,28.529-28.529V28.529A28.53,28.53,0,0,0,317.029,0Zm14.811,422.9a44.989,44.989,0,0,0-44.989,44.989H58.708A44.989,44.989,0,0,0,13.719,422.9V60.879A44.989,44.989,0,0,0,58.708,15.89H286.85a44.989,44.989,0,0,0,44.989,44.989Z" fill="url(#linear-gradient)"/>
  </g>
  <path id="Path_743" data-name="Path 743" d="M284.586,13.025a44.989,44.989,0,0,0,44.989,44.989V420.037a44.989,44.989,0,0,0-44.989,44.989H56.443a44.989,44.989,0,0,0-44.989-44.989V58.014A44.989,44.989,0,0,0,56.443,13.025H284.586m0-5.529H56.443a5.528,5.528,0,0,0-5.529,5.529,39.5,39.5,0,0,1-39.46,39.46,5.528,5.528,0,0,0-5.529,5.529V420.037a5.528,5.528,0,0,0,5.529,5.529,39.5,39.5,0,0,1,39.46,39.46,5.528,5.528,0,0,0,5.529,5.529H284.586a5.528,5.528,0,0,0,5.529-5.529,39.5,39.5,0,0,1,39.46-39.46,5.528,5.528,0,0,0,5.529-5.529V58.014a5.528,5.528,0,0,0-5.529-5.529,39.5,39.5,0,0,1-39.46-39.46A5.528,5.528,0,0,0,284.586,7.5Z" transform="translate(2.265 2.865)" fill="#85ceff"/>
  <path id="Path_744" data-name="Path 744" d="M284.586,13.025a44.989,44.989,0,0,0,44.989,44.989V420.037a44.989,44.989,0,0,0-44.989,44.989H56.443a44.989,44.989,0,0,0-44.989-44.989V58.014A44.989,44.989,0,0,0,56.443,13.025H284.586m0-5.529H56.443a5.528,5.528,0,0,0-5.529,5.529,39.5,39.5,0,0,1-39.46,39.46,5.528,5.528,0,0,0-5.529,5.529V420.037a5.528,5.528,0,0,0,5.529,5.529,39.5,39.5,0,0,1,39.46,39.46,5.528,5.528,0,0,0,5.529,5.529H284.586a5.528,5.528,0,0,0,5.529-5.529,39.5,39.5,0,0,1,39.46-39.46,5.528,5.528,0,0,0,5.529-5.529V58.014a5.528,5.528,0,0,0-5.529-5.529,39.5,39.5,0,0,1-39.46-39.46A5.528,5.528,0,0,0,284.586,7.5Z" transform="translate(2.265 2.865)" fill="url(#linear-gradient-2)"/>
  <path id="Path_745" data-name="Path 745" d="M285.462,8.495a5.528,5.528,0,0,1,5.529,5.529,39.5,39.5,0,0,0,39.46,39.46,5.528,5.528,0,0,1,5.529,5.529V421.036a5.528,5.528,0,0,1-5.529,5.529,39.5,39.5,0,0,0-39.46,39.46,5.528,5.528,0,0,1-5.529,5.529H57.319a5.528,5.528,0,0,1-5.529-5.529,39.5,39.5,0,0,0-39.46-39.46A5.528,5.528,0,0,1,6.8,421.036V59.013a5.528,5.528,0,0,1,5.529-5.529,39.5,39.5,0,0,0,39.46-39.46,5.528,5.528,0,0,1,5.529-5.529H285.462m.751-3.612H56.569a7.661,7.661,0,0,0-7.652,7.653A37.676,37.676,0,0,1,11.284,50.169a7.66,7.66,0,0,0-7.652,7.652V422.227a7.66,7.66,0,0,0,7.652,7.652,37.676,37.676,0,0,1,37.633,37.633,7.661,7.661,0,0,0,7.652,7.653H286.213a7.662,7.662,0,0,0,7.652-7.653A37.675,37.675,0,0,1,331.5,429.879a7.66,7.66,0,0,0,7.652-7.652V57.821a7.66,7.66,0,0,0-7.652-7.652,37.675,37.675,0,0,1-37.633-37.633,7.662,7.662,0,0,0-7.652-7.653Z" transform="translate(1.388 1.866)" fill="#b8d921" style="mix-blend-mode: multiply;isolation: isolate"/>
  <path id="Path_746" data-name="Path 746" d="M283.248,11.687a44.989,44.989,0,0,0,44.989,44.989V418.7a44.989,44.989,0,0,0-44.989,44.989H55.105A44.989,44.989,0,0,0,10.116,418.7V56.676A44.989,44.989,0,0,0,55.105,11.687H283.248m0-.691H55.105a.69.69,0,0,0-.691.691,44.349,44.349,0,0,1-44.3,44.3.69.69,0,0,0-.691.691V418.7a.691.691,0,0,0,.691.691,44.349,44.349,0,0,1,44.3,44.3.69.69,0,0,0,.691.691H283.248a.69.69,0,0,0,.691-.691,44.348,44.348,0,0,1,44.3-44.3.691.691,0,0,0,.691-.691V56.676a.69.69,0,0,0-.691-.691,44.348,44.348,0,0,1-44.3-44.3.69.69,0,0,0-.691-.691Z" transform="translate(3.603 4.203)" fill="#b8d921" style="mix-blend-mode: multiply;isolation: isolate"/>
</svg>
