<svg xmlns="http://www.w3.org/2000/svg" width="16" height="20.59" viewBox="0 0 16 20.59">
  <path id="Vector" d="M8,6.085V4.295a6,6,0,0,0-6,6,5.823,5.823,0,0,0,.44,2.25.961.961,0,0,1-.23,1.04,1,1,0,0,1-1.64-.34A7.828,7.828,0,0,1,0,10.295a8,8,0,0,1,8-8V.5a.5.5,0,0,1,.85-.36l2.79,2.79a.5.5,0,0,1,0,.71L8.85,6.435A.5.5,0,0,1,8,6.085Zm5.56,1.96A.965.965,0,0,1,13.79,7a1,1,0,0,1,1.64.34,7.827,7.827,0,0,1,.57,2.95,8,8,0,0,1-8,8v1.8a.5.5,0,0,1-.85.35l-2.79-2.79a.5.5,0,0,1,0-.71l2.79-2.79A.5.5,0,0,1,8,14.5v1.79a6,6,0,0,0,5.56-8.25Z" fill="#2d3962"/>
</svg>
